<svg width="10" height="8" viewBox="0 0 10 8" fill="none" xmlns="http://www.w3.org/2000/svg">
<path d="M9.733 0.293656C9.81763 0.386506 9.88478 0.496808 9.9306 0.618244C9.97642 0.73968 10 0.869864 10 1.00134C10 1.13282 9.97642 1.263 9.9306 1.38444C9.88478 1.50587 9.81763 1.61617 9.733 1.70902L4.27996 7.70634C4.19554 7.79943 4.09525 7.87328 3.98483 7.92367C3.87442 7.97406 3.75605 8 3.6365 8C3.51696 8 3.39859 7.97406 3.28818 7.92367C3.17776 7.87328 3.07747 7.79943 2.99305 7.70634L0.266529 4.70768C0.182029 4.61475 0.115 4.50442 0.0692687 4.383C0.0235376 4.26157 0 4.13143 0 4C0 3.86857 0.0235376 3.73843 0.0692687 3.617C0.115 3.49558 0.182029 3.38525 0.266529 3.29232C0.437185 3.10463 0.668644 2.99918 0.909987 2.99918C1.02949 2.99918 1.14782 3.02507 1.25822 3.07537C1.36863 3.12566 1.46895 3.19938 1.55345 3.29232L3.6365 5.58529L8.44608 0.293656C8.5305 0.200571 8.63079 0.126718 8.74121 0.0763276C8.85162 0.0259372 8.96999 0 9.08954 0C9.20908 0 9.32745 0.0259372 9.43786 0.0763276C9.54828 0.126718 9.64857 0.200571 9.733 0.293656Z" fill="#F3D57F"/>
</svg>
