<svg width="381" height="160" viewBox="0 0 381 160" fill="none" xmlns="http://www.w3.org/2000/svg">
<path fill-rule="evenodd" clip-rule="evenodd" d="M58.9001 48.7475H56.7001L56.639 59.4307H53.368V48.8058L51.1651 48.689V46H58.9001V48.7475ZM68.6576 50.7766C69.1349 50.838 69.6674 50.8379 70.2058 50.8379C70.264 49.2263 70.2058 47.6146 70.2058 46.0029H73.5378V59.4336H70.2058V53.9416C69.7285 53.8248 69.2513 53.8832 68.7158 53.8832L68.6576 59.4307H65.3838V46H68.6576V50.7766ZM86.5605 48.7475H84.3023L84.1829 51.1942L86.4441 51.311V53.8832H84.3023L84.2411 56.7445L86.7409 56.8642V59.4307H80.9702V46H86.5605V48.7475V48.7475ZM37.4848 57.0453C41.3523 59.5533 41.8266 64.2073 41.7073 69.1037V85.3372L40.5171 85.3986H23.6241L23.563 70.8964C23.4578 70.1946 23.097 69.5569 22.5502 69.1066C21.8955 68.5664 20.7053 68.6248 19.7566 68.7445C18.6857 69.2234 18.2084 70.4146 18.2084 71.6701V82.7737C18.3277 86.1752 21.7791 87.311 24.1566 88.619C30.5239 92.8 40.4589 94.8876 41.4076 104.26L41.7044 108.079L41.6433 131.834C41.4076 135.597 40.2174 139.115 37.0046 140.964C31.7112 143.472 24.5728 142.753 17.9698 142.873C11.425 142.514 3.81221 142.934 1.19313 136.607C0.541275 134.823 0.183334 132.905 0.00290849 130.82V107.244H18.1473L18.2055 125.743C18.2637 126.701 18.6216 127.477 19.2153 128.076C19.8701 128.669 20.9992 128.613 21.8926 128.493C22.377 128.329 22.8034 128.028 23.1201 127.625C23.4368 127.222 23.6301 126.736 23.6765 126.225V109.693C23.6765 106.946 21.0603 105.574 19.0378 104.561L6.48657 97.5183C2.44156 95.0102 0.241537 90.7737 0 85.7606V65.4686C0.419052 61.3518 2.08071 57.1153 6.18684 55.9183C12.8509 54.0088 21.1796 54.4263 28.6149 54.7241C30.9342 55.0248 33.3117 55.2672 35.3954 55.9766L37.4848 57.0453V57.0453ZM275.736 68.7416C277.698 72.2044 278.175 76.4993 278.294 80.9781V142.152H260.982L260.924 81.3927C260.805 80.3212 260.502 79.4248 259.85 78.7124C259.021 78.111 257.476 78.1723 256.702 78.6511C255.628 79.4861 255.45 80.8613 255.508 82.3533V142.155H238.077V64.0876H255.453C255.572 65.2234 255.453 66.4175 255.572 67.6088C259.262 63.9708 265.502 62.4175 270.798 64.4438C272.82 65.2204 274.604 66.8321 275.736 68.7416V68.7416ZM364.549 64.2657C367.584 64.8 370.381 66.473 371.752 69.2788C374.365 75.2496 373.355 83.2438 373.594 90.5256H356.223L356.104 79.4219C355.985 78.6453 355.746 77.9942 355.211 77.3956C354.389 77.0309 353.481 76.9064 352.592 77.0365C350.869 77.6351 350.869 79.5445 350.75 81.273C351.108 85.273 349.737 90.2277 352.592 92.9139C356.401 95.5416 360.743 97.092 364.846 99.3022C368.716 101.212 372.878 104.491 373.41 109.27L373.591 112.076L373.53 128.85C373.114 133.504 372.517 138.578 368.181 140.721C362.407 143.229 354.614 142.695 347.595 142.511C343.02 142.152 338.137 141.734 335.699 137.796C332.425 131.293 333.618 122.342 333.324 114.225L333.795 114.102H350.569L350.75 114.225V125.985C350.988 127.291 351.108 128.666 352.414 129.203C353.069 129.448 354.023 129.448 354.675 129.145C355.921 128.488 356.279 127.115 356.221 125.501L356.162 115.06C355.804 112.853 353.599 111.597 351.815 110.581C346.524 107.898 340.628 105.807 336.231 101.451C333.435 98.765 333.435 94.6453 333.321 90.5285C333.673 83.0686 332.303 74.6511 335.338 68.6832C338.309 63.9095 344.438 63.8511 350.15 63.6117V63.5504C355.091 63.5475 360.088 63.4307 364.549 64.2657V64.2657ZM81.9218 64.8C85.0734 65.638 87.4539 68.5051 88.1668 71.6672C88.8827 74.8905 89.1184 78.3533 89.1184 81.9942L89.0573 127.769C88.6994 132.902 88.4026 138.514 83.6446 140.782C77.8157 143.229 70.0807 142.692 63.1227 142.511C58.126 142.272 52.8879 141.495 50.749 136.905C48.904 132.724 48.904 127.53 48.904 122.342L48.9651 77.6964C49.2619 72.6219 50.036 67.2496 54.9133 65.2788C60.9197 63.0686 68.7129 63.5474 75.7932 63.7285C77.8157 64.0263 80.0797 64.0876 81.9218 64.8V64.8ZM67.7642 77.2759C67.0484 77.5737 66.574 78.2891 66.3965 79.0073V125.378C66.2772 126.993 66.6351 128.365 67.8224 129.142C68.419 129.32 69.3706 129.445 69.9643 129.2C71.0352 128.961 71.5706 127.831 71.7481 126.818V82.7095C71.5095 80.9197 71.9868 78.7124 70.6772 77.454C69.9643 76.8555 68.5994 76.9168 67.7642 77.2759ZM323.025 67.0715C326.002 70.3562 326.122 75.1883 326.36 79.965V127.594C326.002 132.902 325.525 138.818 320.467 140.961C313.867 143.349 304.884 142.75 297.39 142.336C293.639 141.857 290.127 140.721 288.285 137.442C285.965 133.206 286.323 127.291 286.143 121.863L286.204 78.7708C286.381 73.9358 286.739 69.162 290.307 66.2365C293.82 63.9737 298.458 63.7927 303.097 63.6117V63.5504C310.18 63.9066 318.209 62.654 323.025 67.0715ZM305.774 77.0365C304.7 77.1562 303.932 78.0526 303.632 79.0073V124.251C303.632 125.921 303.455 127.714 304.587 128.785C305.422 129.504 306.906 129.504 307.861 128.964C308.51 128.61 308.69 127.772 308.929 127.115L308.99 85.1591C308.865 82.7708 309.287 80.0818 308.393 78.1139C307.916 77.2175 306.906 76.9781 305.774 77.0365V77.0365ZM134.091 67.9621C136.413 71.6088 137.068 76.1402 137.187 81.0949V126.041C136.89 132.485 135.7 139.112 129.691 141.615C124.458 143.708 118.03 142.272 114.404 138.514L114.285 138.634V160H96.9728V64.0876H114.285V67.5504C114.998 67.1329 115.711 66.5343 116.427 66C120.114 63.0715 126.659 62.8963 130.942 64.9839C132.071 65.7577 133.32 66.7708 134.091 67.9621ZM115.891 78.6482C114.404 79.3051 114.462 81.0949 114.343 82.5898V111.419L114.404 124.254C114.462 125.384 114.643 126.283 115.178 127.115C115.949 127.834 117.198 127.892 118.211 127.594C119.104 127.235 119.343 126.219 119.639 125.445V81.273C119.52 80.4993 119.401 79.7226 118.924 79.127C118.388 78.2307 116.782 78.3533 115.891 78.6482V78.6482ZM158.125 59.9066C158.425 62 158.603 64.4409 160.805 65.1621C165.089 65.9971 168.36 63.7898 172.047 62.8934C174.131 62.292 176.214 61.4015 178.292 60.7445C180.137 60.327 182.337 60.4438 184.36 60.5022C185.195 60.6248 184.718 61.638 185.369 61.8774C185.844 62 186.382 62.0584 186.737 62.4759C187.334 63.1942 186.379 63.6701 186.263 64.2686C186.379 68.5664 186.798 72.6861 187.095 76.8584C187.06 77.0171 186.987 77.1651 186.884 77.29C186.78 77.4149 186.648 77.5132 186.499 77.5767C183.405 77.9358 180.015 77.6993 177.102 78.3562C174.663 79.3693 170.796 79.1912 170.438 82.6511C170.557 83.6701 171.209 84.3854 171.509 85.3401C172.58 87.8453 172.283 91.3664 171.448 93.9358C171.093 95.2467 170.38 96.4409 170.138 97.8745C169.542 98.0526 168.651 97.9328 167.941 97.9942C165.261 99.127 161.332 99.781 161.096 103.422C161.038 105.334 160.739 107.124 160.68 109.034L160.619 135.653C160.381 136.245 159.432 136.429 159.49 137.323C159.251 138.578 159.671 140.19 159.077 141.264C156.277 141.498 153.126 141.025 150.568 141.682C150.21 142.099 150.332 142.698 150.21 143.232C148.961 143.769 147.175 143.591 145.926 143.112C145.807 142.274 145.749 141.264 144.855 140.785C144.436 140.488 143.843 140.128 143.668 139.594C143.31 138.044 144.913 137.62 145.507 136.669L145.629 134.041L145.568 100.499C145.391 96.2073 145.507 91.7839 145.446 87.3664L145.033 87.2496V72.3299C144.558 72.0292 144.02 71.9095 143.784 71.4336C143.843 70.6569 144.736 70.6569 145.155 70.1781C145.333 69.2817 145.094 68.2102 145.926 67.673C146.284 67.3723 146.82 67.0745 146.82 66.5372C147.058 65.5183 145.69 64.5693 146.82 63.854C148.368 63.1971 149.378 64.7504 150.984 64.3913C152.829 63.3197 155.384 63.0745 156.458 60.9285C156.638 60.2745 156.755 59.5591 157.293 59.2C157.77 59.1299 157.948 59.6117 158.125 59.9066V59.9066ZM166.573 81.7518C165.264 80.9197 162.764 80.9781 161.518 81.8745C160.445 82.3504 159.851 83.3051 159.851 84.5577C160.148 85.2146 160.922 85.5737 161.396 85.9912C163.538 86.4088 165.203 87.8423 166.573 89.454C166.925 90.2307 167.17 91.3051 166.809 92.1985C165.738 92.3796 166.099 90.9431 165.68 90.3475C164.493 89.273 163.125 88.3766 161.399 88.1372C160.741 88.1372 159.912 88.0788 159.673 88.7358C159.735 90.8818 159.08 93.6321 160.741 95.0015C161.871 95.9591 163.361 96.3767 164.967 96.1402C167.702 95.4248 168.776 92.6803 169.489 90.2307C169.489 88.0204 169.608 85.6934 168.602 84.0847C168.142 83.1417 167.442 82.3371 166.573 81.7518V81.7518ZM225.406 66.4759C229.812 70.4701 229.158 77.2788 229.454 83.6029V142.152H212.148C212.148 141.022 212.206 139.889 212.148 138.753C207.981 142.455 200.604 143.947 195.011 141.495C189.895 138.934 189.656 132.724 189.301 127.112L189.24 112.791C189.359 108.969 190.549 105.807 193.346 103.48L195.488 101.927L212.023 92.0175V79.2467C211.904 78.4701 211.607 77.8161 211.01 77.3372C210.475 76.9168 209.526 76.9781 208.755 77.0365C208.039 77.1562 207.265 77.7518 207.026 78.4117C206.252 82.1109 206.73 86.4672 206.61 90.5256H189.24C189.359 83.6642 188.702 76.3796 190.427 70.4088C191.679 66.292 195.901 64.5051 200.007 64.0234C206.494 63.2496 214.045 63.3664 220.413 64.2657C222.194 64.7445 223.981 65.3401 225.406 66.4759V66.4759ZM211.965 108.61C210.062 109.448 207.862 110.403 207.026 112.493C206.316 116.015 206.788 120.19 206.668 124.012C206.788 125.86 206.436 128.187 208.094 129.145C208.81 129.384 209.765 129.384 210.475 129.145C211.429 128.905 211.662 127.889 211.901 127.057L211.965 108.61V108.61ZM375.293 67.8307C375.293 66.3445 376.408 65.2234 377.84 65.2234C379.254 65.2234 380.368 66.3445 380.368 67.8307C380.368 69.3401 379.254 70.4526 377.84 70.4526C376.405 70.4526 375.293 69.3401 375.293 67.8307ZM377.84 70.9752C379.545 70.9752 381 69.6467 381 67.8307C381 66.0292 379.545 64.7036 377.84 64.7036C376.117 64.7036 374.662 66.0292 374.662 67.8307C374.662 69.6496 376.117 70.9752 377.84 70.9752ZM377.179 68.0788H377.805L378.759 69.6496H379.367L378.343 68.0555C378.873 67.9912 379.274 67.708 379.274 67.0598C379.274 66.3445 378.852 66.0292 378 66.0292H376.623V69.6496H377.173V68.0788H377.179ZM377.179 67.6146V66.4964H377.918C378.299 66.4964 378.707 66.5781 378.707 67.0277C378.707 67.5825 378.291 67.6146 377.831 67.6146H377.179Z" fill="#FFBB00"/>
<path d="M64.936 11.352H63.336V25.752H64.936V31H52.84V25.752H54.376V14.552L48.936 31H44.2L38.6 14.712V25.752H40.136V31H29.64V25.752H31.24V11.352H29.64V6.104H44.296L47.624 16.088L50.824 6.104H64.936V11.352ZM94.4905 25.752H95.7705V31H83.2265V25.752H85.1465L84.6345 23.192H80.2825L79.7705 25.752H81.6905V31H70.7465V25.752H72.0265L77.4345 6.104H89.0825L94.4905 25.752ZM80.9865 19.8H83.9305L82.6185 13.432H82.2985L80.9865 19.8ZM111.504 31.448C109.456 31.448 107.514 31.2773 105.68 30.936C103.866 30.5733 102.469 30.168 101.488 29.72V23.384H108.528C108.528 24.0453 108.677 24.5253 108.976 24.824C109.274 25.1227 109.818 25.272 110.608 25.272C111.269 25.272 111.738 25.176 112.016 24.984C112.314 24.7707 112.464 24.4613 112.464 24.056C112.464 23.7147 112.325 23.4267 112.048 23.192C111.77 22.936 111.29 22.68 110.608 22.424L107.856 21.464C105.488 20.568 103.781 19.512 102.736 18.296C101.712 17.08 101.2 15.4373 101.2 13.368C101.2 10.8507 102.021 8.94133 103.664 7.64C105.328 6.31733 108.09 5.656 111.952 5.656C113.808 5.656 115.546 5.848 117.168 6.232C118.81 6.59467 120.133 7.08533 121.136 7.704V13.432H114.736C114.736 12.3653 114.074 11.832 112.752 11.832C112.112 11.832 111.653 11.9173 111.376 12.088C111.12 12.2373 110.992 12.5147 110.992 12.92C110.992 13.2827 111.141 13.5707 111.44 13.784C111.76 13.9973 112.272 14.2213 112.976 14.456L115.76 15.416C118.021 16.184 119.664 17.1867 120.688 18.424C121.733 19.64 122.256 21.24 122.256 23.224C122.256 25.9333 121.338 27.9813 119.504 29.368C117.69 30.7547 115.024 31.448 111.504 31.448ZM151.818 13.848H146.314V11.352H144.266V25.752H146.506V31H133.066V25.752H135.306V11.352H133.258V13.848H127.754V6.104H151.818V13.848ZM157.715 31V25.752H159.315V11.352H157.715V6.104H179.315V15.768H172.147V11.352H168.275V16.408H171.091V20.056H168.275V25.752H172.147V20.696H179.315V31H157.715ZM185.328 25.752H186.928V11.352H185.328V6.104H200.016C202.768 6.104 204.869 6.66933 206.32 7.8C207.77 8.93067 208.496 10.7653 208.496 13.304C208.496 14.7333 208.208 15.9707 207.632 17.016C207.056 18.0613 206.234 18.7867 205.168 19.192L205.2 19.512C207.248 19.832 208.272 21.0907 208.272 23.288V25.752H209.776V31H199.632V23.48C199.632 22.648 199.504 22.0187 199.248 21.592C199.013 21.1653 198.629 20.8773 198.096 20.728C197.584 20.5787 196.848 20.504 195.888 20.504V25.752H198V31H185.328V25.752ZM197.616 16.6C198.234 16.6 198.693 16.44 198.992 16.12C199.312 15.7787 199.472 15.256 199.472 14.552V13.4C199.472 12.696 199.312 12.184 198.992 11.864C198.693 11.5227 198.234 11.352 197.616 11.352H195.888V16.6H197.616ZM228.137 31.448C224.105 31.448 220.991 30.424 218.793 28.376C216.617 26.328 215.529 23.0533 215.529 18.552C215.529 9.95467 219.711 5.656 228.073 5.656C230.1 5.656 231.977 5.90133 233.705 6.392C235.455 6.88266 236.756 7.42666 237.609 8.024V16.024H229.929V13.72C229.929 12.9093 229.748 12.312 229.385 11.928C229.023 11.544 228.479 11.352 227.753 11.352C227.028 11.352 226.484 11.544 226.121 11.928C225.759 12.312 225.577 12.9093 225.577 13.72V23.384C225.577 24.1947 225.759 24.792 226.121 25.176C226.484 25.56 227.028 25.752 227.753 25.752C228.479 25.752 229.023 25.56 229.385 25.176C229.748 24.792 229.929 24.1947 229.929 23.384V20.792H237.609V29.08C236.735 29.6773 235.433 30.2213 233.705 30.712C231.999 31.2027 230.143 31.448 228.137 31.448ZM243.615 31V25.752H245.215V11.352H243.615V6.104H257.119V11.352H254.175V25.752H257.055V22.808H263.423V31H243.615ZM292.809 25.752H294.089V31H281.545V25.752H283.465L282.953 23.192H278.601L278.089 25.752H280.009V31H269.065V25.752H270.345L275.753 6.104H287.401L292.809 25.752ZM279.305 19.8H282.249L280.937 13.432H280.617L279.305 19.8ZM309.823 31.448C307.775 31.448 305.833 31.2773 303.999 30.936C302.185 30.5733 300.788 30.168 299.807 29.72V23.384H306.847C306.847 24.0453 306.996 24.5253 307.295 24.824C307.593 25.1227 308.137 25.272 308.927 25.272C309.588 25.272 310.057 25.176 310.335 24.984C310.633 24.7707 310.783 24.4613 310.783 24.056C310.783 23.7147 310.644 23.4267 310.367 23.192C310.089 22.936 309.609 22.68 308.927 22.424L306.175 21.464C303.807 20.568 302.1 19.512 301.055 18.296C300.031 17.08 299.519 15.4373 299.519 13.368C299.519 10.8507 300.34 8.94133 301.983 7.64C303.647 6.31733 306.409 5.656 310.271 5.656C312.127 5.656 313.865 5.848 315.487 6.232C317.129 6.59467 318.452 7.08533 319.455 7.704V13.432H313.055C313.055 12.3653 312.393 11.832 311.071 11.832C310.431 11.832 309.972 11.9173 309.695 12.088C309.439 12.2373 309.311 12.5147 309.311 12.92C309.311 13.2827 309.46 13.5707 309.759 13.784C310.079 13.9973 310.591 14.2213 311.295 14.456L314.079 15.416C316.34 16.184 317.983 17.1867 319.007 18.424C320.052 19.64 320.575 21.24 320.575 23.224C320.575 25.9333 319.657 27.9813 317.823 29.368C316.009 30.7547 313.343 31.448 309.823 31.448ZM336.185 31.448C334.137 31.448 332.196 31.2773 330.361 30.936C328.548 30.5733 327.15 30.168 326.169 29.72V23.384H333.209C333.209 24.0453 333.358 24.5253 333.657 24.824C333.956 25.1227 334.5 25.272 335.289 25.272C335.95 25.272 336.42 25.176 336.697 24.984C336.996 24.7707 337.145 24.4613 337.145 24.056C337.145 23.7147 337.006 23.4267 336.729 23.192C336.452 22.936 335.972 22.68 335.289 22.424L332.537 21.464C330.169 20.568 328.462 19.512 327.417 18.296C326.393 17.08 325.881 15.4373 325.881 13.368C325.881 10.8507 326.702 8.94133 328.345 7.64C330.009 6.31733 332.772 5.656 336.633 5.656C338.489 5.656 340.228 5.848 341.849 6.232C343.492 6.59467 344.814 7.08533 345.817 7.704V13.432H339.417C339.417 12.3653 338.756 11.832 337.433 11.832C336.793 11.832 336.334 11.9173 336.057 12.088C335.801 12.2373 335.673 12.5147 335.673 12.92C335.673 13.2827 335.822 13.5707 336.121 13.784C336.441 13.9973 336.953 14.2213 337.657 14.456L340.441 15.416C342.702 16.184 344.345 17.1867 345.369 18.424C346.414 19.64 346.937 21.24 346.937 23.224C346.937 25.9333 346.02 27.9813 344.185 29.368C342.372 30.7547 339.705 31.448 336.185 31.448Z" fill="#FFBB00"/>
</svg>
