<svg width="12" height="14" viewBox="0 0 12 14" fill="none" xmlns="http://www.w3.org/2000/svg">
<path fill-rule="evenodd" clip-rule="evenodd" d="M6 0C5.40857 0 4.42029 0.231875 3.49029 0.49C2.53886 0.7525 1.57972 1.06312 1.01572 1.25125C0.779911 1.33074 0.570853 1.47653 0.412562 1.67186C0.25427 1.8672 0.153165 2.10415 0.120862 2.3555C-0.389995 6.27288 0.795432 9.17613 2.23372 11.0968C2.84364 11.9183 3.57088 12.6419 4.39114 13.2431C4.722 13.482 5.02886 13.6649 5.28943 13.79C5.52943 13.9055 5.78743 14 6 14C6.21257 14 6.46971 13.9055 6.71057 13.79C7.0247 13.6341 7.32522 13.4512 7.60886 13.2431C8.42913 12.6419 9.15638 11.9184 9.76628 11.0968C11.2046 9.17613 12.39 6.27288 11.8791 2.3555C11.8469 2.10403 11.7458 1.86694 11.5875 1.67145C11.4292 1.47597 11.2202 1.33003 10.9843 1.25038C10.1655 0.976337 9.34045 0.722513 8.50971 0.489125C7.57971 0.23275 6.59143 0 6 0ZM6 4.375C6.30363 4.37454 6.59763 4.48379 6.82992 4.6834C7.0622 4.88302 7.21779 5.16011 7.26912 5.46561C7.32045 5.77111 7.26422 6.08529 7.11037 6.35252C6.95652 6.61975 6.715 6.82277 6.42857 6.92562L6.75857 8.66687C6.77058 8.73021 6.76872 8.79547 6.75312 8.85798C6.73752 8.92049 6.70858 8.97871 6.66836 9.02846C6.62814 9.07821 6.57764 9.11827 6.52048 9.14577C6.46332 9.17326 6.4009 9.18751 6.33771 9.1875H5.66229C5.59917 9.18738 5.53685 9.17304 5.4798 9.14549C5.42274 9.11794 5.37235 9.07786 5.33222 9.02812C5.2921 8.97838 5.26323 8.92021 5.24768 8.85777C5.23214 8.79532 5.23029 8.73013 5.24229 8.66687L5.57143 6.92562C5.285 6.82277 5.04348 6.61975 4.88963 6.35252C4.73578 6.08529 4.67955 5.77111 4.73088 5.46561C4.78221 5.16011 4.9378 4.88302 5.17008 4.6834C5.40237 4.48379 5.69637 4.37454 6 4.375Z" fill="#F3D57F"/>
</svg>
